<?xml version="1.0" encoding="UTF-8" standalone="no"?>
<svg width="313px" height="55px" viewBox="0 0 313 55" version="1.1" xmlns="http://www.w3.org/2000/svg" xmlns:xlink="http://www.w3.org/1999/xlink" xmlns:sketch="http://www.bohemiancoding.com/sketch/ns">
    <!-- Generator: Sketch 3.3.3 (12072) - http://www.bohemiancoding.com/sketch -->
    <title>Imported Layers</title>
    <desc>Created with Sketch.</desc>
    <defs></defs>
    <g id="Welcome" stroke="none" stroke-width="1" fill="none" fill-rule="evenodd" sketch:type="MSPage">
        <g id="Front" sketch:type="MSArtboardGroup" transform="translate(-110.000000, -33.000000)">
            <g id="Imported-Layers" sketch:type="MSLayerGroup" transform="translate(110.000000, 33.000000)">
                <path d="M0,40.3055172 C0,40.3055172 80.2323333,-31.9325517 176.759193,17.0095172 C282.07443,70.4093793 312.364249,26.6704828 312.364249,26.6704828 C312.364249,26.6704828 284.421442,83.6813793 179.991576,35.0405517 C75.55781,-13.6070345 0,40.3055172 0,40.3055172" id="Fill-1" fill="#D6C798" sketch:type="MSShapeGroup"></path>
                <path d="M49.7455483,35.4306207 C49.7455483,32.5331034 51.995053,30.4485517 54.8062025,30.4485517 C57.6027259,30.4485517 59.8522305,32.5331034 59.8522305,35.4306207 C59.8522305,38.3291034 57.6027259,40.4136552 54.8062025,40.4136552 C51.995053,40.4136552 49.7455483,38.3291034 49.7455483,35.4306207 M58.2950312,35.4306207 C58.2950312,33.3615172 56.853866,31.8051034 54.8062025,31.8051034 C52.7585389,31.8051034 51.3027477,33.3615172 51.3027477,35.4306207 C51.3027477,37.5016552 52.7585389,39.0571034 54.8062025,39.0571034 C56.853866,39.0571034 58.2950312,37.5016552 58.2950312,35.4306207" id="Fill-2" fill="#121212" sketch:type="MSShapeGroup"></path>
                <path d="M67.1185109,40.2852414 L65.4599034,40.2852414 L64.2634829,38.4295172 C64.1045452,38.444 63.9465826,38.4575172 63.7730187,38.4575172 L63.0095327,38.4575172 L63.0095327,40.2852414 L61.5391153,40.2852414 L61.5391153,32.9617931 L63.7730187,32.9617931 C65.7495016,32.9617931 67.0171028,33.9466207 67.0171028,35.7308966 C67.0171028,36.8306207 66.4983614,37.6155862 65.6334673,38.0153103 L67.1185109,40.2852414 L67.1185109,40.2852414 Z M63.7301153,37.2168276 C64.9996667,37.2168276 65.5184081,36.6732414 65.5184081,35.7308966 C65.5184081,34.7750345 64.9996667,34.2324138 63.7301153,34.2324138 L63.0095327,34.2324138 L63.0095327,37.2168276 L63.7301153,37.2168276 L63.7301153,37.2168276 Z" id="Fill-3" fill="#121212" sketch:type="MSShapeGroup"></path>
                <path d="M69.4850249,40.2852414 L68.0419097,40.2852414 L71.3591246,32.8758621 L71.5170872,32.8758621 L74.8479533,40.2852414 L73.3190312,40.2852414 L72.9738536,39.4568276 L69.8302025,39.4568276 L69.4850249,40.2852414 L69.4850249,40.2852414 Z M71.8349626,36.7302069 C71.5902181,36.1306207 71.4156791,35.4306207 71.4156791,35.4306207 C71.4156791,35.4306207 71.2430903,36.1306207 70.9846947,36.7302069 L70.2914143,38.358069 L72.5116667,38.358069 L71.8349626,36.7302069 L71.8349626,36.7302069 Z" id="Fill-4" fill="#121212" sketch:type="MSShapeGroup"></path>
                <path d="M76.1886854,32.9617931 L77.6591028,32.9617931 L77.6591028,39.0136552 L81.0182461,39.0136552 L81.0182461,40.2852414 L76.1886854,40.2852414 L76.1886854,32.9617931" id="Fill-5" fill="#121212" sketch:type="MSShapeGroup"></path>
                <path d="M86.3090187,40.2852414 L84.8678536,40.2852414 L88.1831184,32.8758621 L88.3420561,32.8758621 L91.6729221,40.2852414 L90.1449751,40.2852414 L89.7978474,39.4568276 L86.6551713,39.4568276 L86.3090187,40.2852414 L86.3090187,40.2852414 Z M88.6589564,36.7302069 C88.4142118,36.1306207 88.240648,35.4306207 88.240648,35.4306207 C88.240648,35.4306207 88.0690343,36.1306207 87.8086885,36.7302069 L87.1163832,38.358069 L89.3366355,38.358069 L88.6589564,36.7302069 L88.6589564,36.7302069 Z" id="Fill-6" fill="#121212" sketch:type="MSShapeGroup"></path>
                <path d="M95.1617508,36.7456552 C94.7151651,36.3169655 94.2393271,35.6884138 94.2393271,35.6884138 C94.2393271,35.6884138 94.3543863,36.4733793 94.3543863,37.0729655 L94.3543863,40.2852414 L93.0136542,40.2852414 L93.0136542,32.8758621 L93.1569907,32.8758621 L96.9061651,36.4878621 C97.4249065,36.988 97.8285888,37.5441379 97.8285888,37.5441379 C97.8285888,37.5441379 97.7427819,36.8016552 97.7427819,36.1586207 L97.7427819,32.9617931 L99.0825389,32.9617931 L99.0825389,40.3846897 L98.9392025,40.3846897 L95.1617508,36.7456552" id="Fill-7" fill="#121212" sketch:type="MSShapeGroup"></path>
                <path d="M100.985891,32.9617931 L103.321202,32.9617931 C105.598984,32.9617931 107.214688,34.4033103 107.214688,36.6307586 C107.214688,38.8292414 105.613611,40.2852414 103.321202,40.2852414 L100.985891,40.2852414 L100.985891,32.9617931 L100.985891,32.9617931 Z M103.235396,39.0136552 C104.936907,39.0136552 105.700393,38.0722759 105.700393,36.6307586 C105.700393,35.2027586 104.936907,34.2324138 103.235396,34.2324138 L102.456308,34.2324138 L102.456308,39.0136552 L103.235396,39.0136552 L103.235396,39.0136552 Z" id="Fill-8" fill="#121212" sketch:type="MSShapeGroup"></path>
                <path d="M111.942841,30.4775172 L112.101779,30.4775172 L116.787028,35.9017931 L121.429374,30.4775172 L121.588312,30.4775172 L121.588312,40.2852414 L120.131545,40.2852414 L120.131545,35.2462069 C120.131545,34.7035862 120.189075,33.8471724 120.189075,33.8471724 C120.189075,33.8471724 119.713237,34.5751724 119.309555,35.0173793 L116.844558,37.9583448 L116.671969,37.9583448 L114.206972,35.0173793 C113.830592,34.5751724 113.341103,33.8471724 113.341103,33.8471724 C113.341103,33.8471724 113.399607,34.7035862 113.399607,35.2462069 L113.399607,40.2852414 L111.942841,40.2852414 L111.942841,30.4775172" id="Fill-9" fill="#121212" sketch:type="MSShapeGroup"></path>
                <path d="M124.530121,40.2852414 L123.088956,40.2852414 L126.405196,32.8758621 L126.563159,32.8758621 L129.894025,40.2852414 L128.365103,40.2852414 L128.01895,39.4568276 L124.876274,39.4568276 L124.530121,40.2852414 L124.530121,40.2852414 Z M126.881034,36.7302069 C126.63629,36.1306207 126.462726,35.4306207 126.462726,35.4306207 C126.462726,35.4306207 126.290137,36.1306207 126.030766,36.7302069 L125.337486,38.358069 L127.557738,38.358069 L126.881034,36.7302069 L126.881034,36.7302069 Z" id="Fill-10" fill="#121212" sketch:type="MSShapeGroup"></path>
                <path d="M133.240492,36.2590345 L131.134324,32.9617931 L132.792931,32.9617931 L133.686103,34.4177931 C133.989352,34.917931 134.161941,35.5310345 134.161941,35.5310345 C134.161941,35.5310345 134.377433,34.9034483 134.65143,34.4177931 L135.5329,32.9617931 L137.118377,32.9617931 L135.026835,36.2735172 L137.608841,40.2852414 L135.949259,40.2852414 L134.696283,38.3291034 C134.363782,37.7864828 134.104411,37.1154483 134.104411,37.1154483 C134.104411,37.1154483 133.84504,37.8009655 133.527165,38.3291034 L132.317093,40.2852414 L130.701389,40.2852414 L133.240492,36.2590345" id="Fill-11" fill="#121212" sketch:type="MSShapeGroup"></path>
                <path d="M139.006128,40.2852414 L140.490196,40.2852414 L140.490196,32.9617931 L139.006128,32.9617931 L139.006128,40.2852414 Z" id="Fill-12" fill="#121212" sketch:type="MSShapeGroup"></path>
                <path d="M142.422801,32.9617931 L143.893218,32.9617931 L143.893218,39.0136552 L147.251386,39.0136552 L147.251386,40.2852414 L142.422801,40.2852414 L142.422801,32.9617931" id="Fill-13" fill="#121212" sketch:type="MSShapeGroup"></path>
                <path d="M148.781283,32.9617931 L150.252676,32.9617931 L150.252676,39.0136552 L153.611819,39.0136552 L153.611819,40.2852414 L148.781283,40.2852414 L148.781283,32.9617931" id="Fill-14" fill="#121212" sketch:type="MSShapeGroup"></path>
                <path d="M154.417234,36.6307586 C154.417234,34.3897931 156.219178,32.8468966 158.353623,32.8468966 C160.50172,32.8468966 162.289037,34.3897931 162.289037,36.6307586 C162.289037,38.8437241 160.50172,40.4136552 158.353623,40.4136552 C156.219178,40.4136552 154.417234,38.8437241 154.417234,36.6307586 M160.775717,36.6307586 C160.775717,35.1882759 159.781137,34.132 158.353623,34.132 C156.926109,34.132 155.93153,35.1882759 155.93153,36.6307586 C155.93153,38.0867586 156.926109,39.114069 158.353623,39.114069 C159.781137,39.114069 160.775717,38.0867586 160.775717,36.6307586" id="Fill-15" fill="#121212" sketch:type="MSShapeGroup"></path>
                <path d="M163.903766,32.9617931 L168.776231,32.9617931 L168.776231,34.245931 L165.375159,34.245931 L165.375159,36.6442759 L168.446654,36.6442759 L168.446654,37.9293793 L165.375159,37.9293793 L165.375159,40.2852414 L163.903766,40.2852414 L163.903766,32.9617931" id="Fill-16" fill="#121212" sketch:type="MSShapeGroup"></path>
                <path d="M170.678607,40.2852414 L169.238417,40.2852414 L172.553682,32.8758621 L172.71262,32.8758621 L176.042511,40.2852414 L174.514564,40.2852414 L174.168411,39.4568276 L171.02476,39.4568276 L170.678607,40.2852414 L170.678607,40.2852414 Z M173.030495,36.7302069 C172.785751,36.1306207 172.611212,35.4306207 172.611212,35.4306207 C172.611212,35.4306207 172.438623,36.1306207 172.178277,36.7302069 L171.486947,38.358069 L173.706224,38.358069 L173.030495,36.7302069 L173.030495,36.7302069 Z" id="Fill-17" fill="#121212" sketch:type="MSShapeGroup"></path>
                <path d="M176.592455,36.6307586 C176.592455,34.4457931 178.192558,32.8468966 180.398184,32.8468966 C181.839349,32.8468966 182.805651,33.3895172 183.468704,34.3897931 L182.315187,35.1602759 C181.911505,34.5606897 181.335234,34.132 180.398184,34.132 C179.013573,34.132 178.09115,35.2027586 178.09115,36.6307586 C178.09115,38.0442759 179.013573,39.114069 180.41281,39.114069 C181.42104,39.114069 182.070442,38.6148966 182.503377,37.9863448 L183.684196,38.7433103 C183.007492,39.814069 181.968059,40.4136552 180.41281,40.4136552 C178.147704,40.4136552 176.592455,38.8002759 176.592455,36.6307586" id="Fill-18" fill="#121212" sketch:type="MSShapeGroup"></path>
                <path d="M185.227745,40.2852414 L186.712788,40.2852414 L186.712788,32.9617931 L185.227745,32.9617931 L185.227745,40.2852414 Z" id="Fill-19" fill="#121212" sketch:type="MSShapeGroup"></path>
                <path d="M189.524913,40.2852414 L188.081798,40.2852414 L191.399012,32.8758621 L191.556975,32.8758621 L194.886866,40.2852414 L193.359894,40.2852414 L193.012766,39.4568276 L189.87009,39.4568276 L189.524913,40.2852414 L189.524913,40.2852414 Z M191.87485,36.7302069 C191.628156,36.1306207 191.456542,35.4306207 191.456542,35.4306207 C191.456542,35.4306207 191.282978,36.1306207 191.023607,36.7302069 L190.331302,38.358069 L192.550579,38.358069 L191.87485,36.7302069 L191.87485,36.7302069 Z" id="Fill-20" fill="#121212" sketch:type="MSShapeGroup"></path>
                <path d="M196.228573,32.9617931 L197.698991,32.9617931 L197.698991,39.0136552 L201.058134,39.0136552 L201.058134,40.2852414 L196.228573,40.2852414 L196.228573,32.9617931" id="Fill-21" fill="#121212" sketch:type="MSShapeGroup"></path>
                <path d="M204.82096,38.4005517 L206.07491,37.716 C206.537097,38.472 207.127019,39.0715862 208.323439,39.0715862 C209.318994,39.0715862 210.025925,38.5434483 210.025925,37.744 C210.025925,36.9011034 209.448679,36.5303448 208.380969,36.0601379 L207.733517,35.7733793 C206.306003,35.1457931 205.440134,34.4322759 205.440134,32.9337931 C205.440134,31.4922759 206.565374,30.4630345 208.194729,30.4630345 C209.491583,30.4630345 210.371103,30.9496552 210.962,31.9914483 L209.765579,32.7194483 C209.389199,32.0764138 208.95919,31.7771034 208.194729,31.7771034 C207.414667,31.7771034 206.925178,32.2482759 206.925178,32.9038621 C206.925178,33.6328276 207.342511,33.9611034 208.33904,34.3897931 L208.973816,34.6746207 C210.6451,35.4026207 211.538271,36.1731034 211.538271,37.7304828 C211.538271,39.4288276 210.198514,40.4136552 208.352692,40.4136552 C206.492243,40.4136552 205.368953,39.5002759 204.82096,38.4005517" id="Fill-22" fill="#121212" sketch:type="MSShapeGroup"></path>
                <path d="M213.096445,37.5441379 L213.096445,32.9617931 L214.566863,32.9617931 L214.566863,37.5016552 C214.566863,38.6004138 215.099255,39.114069 216.080184,39.114069 C217.046486,39.114069 217.579854,38.6004138 217.579854,37.5016552 L217.579854,32.9617931 L219.051246,32.9617931 L219.051246,37.5441379 C219.051246,39.4288276 217.810947,40.4136552 216.09481,40.4136552 C214.322118,40.4136552 213.096445,39.4288276 213.096445,37.5441379" id="Fill-23" fill="#121212" sketch:type="MSShapeGroup"></path>
                <path d="M226.474514,40.2852414 L224.815907,40.2852414 L223.621436,38.4295172 C223.462498,38.444 223.303561,38.4575172 223.129022,38.4575172 L222.365536,38.4575172 L222.365536,40.2852414 L220.896093,40.2852414 L220.896093,32.9617931 L223.129022,32.9617931 C225.10648,32.9617931 226.375056,33.9466207 226.375056,35.7308966 C226.375056,36.8306207 225.856315,37.6155862 224.990445,38.0153103 L226.474514,40.2852414 L226.474514,40.2852414 Z M223.086118,37.2168276 C224.35762,37.2168276 224.875386,36.6732414 224.875386,35.7308966 C224.875386,34.7750345 224.35762,34.2324138 223.086118,34.2324138 L222.365536,34.2324138 L222.365536,37.2168276 L223.086118,37.2168276 L223.086118,37.2168276 Z" id="Fill-24" fill="#121212" sketch:type="MSShapeGroup"></path>
                <path d="M227.74504,36.6307586 C227.74504,34.3897931 229.445576,32.8468966 231.591723,32.8468966 C232.949031,32.8468966 233.771022,33.3035862 234.346318,33.9041379 L233.394642,34.8744828 C233.034838,34.4602759 232.486844,34.132 231.591723,34.132 C230.150558,34.132 229.243735,35.2307586 229.243735,36.6307586 C229.243735,38.0288276 230.0511,39.172 231.737009,39.172 C232.414688,39.172 232.949031,38.9856552 233.295184,38.7713103 L233.295184,37.658069 L231.535168,37.658069 L231.535168,36.4733793 L234.635916,36.4733793 L234.635916,39.5707586 C234.145452,39.9424828 233.135271,40.4136552 231.737009,40.4136552 C229.329542,40.4136552 227.74504,38.8137931 227.74504,36.6307586" id="Fill-25" fill="#121212" sketch:type="MSShapeGroup"></path>
                <path d="M236.351078,32.9617931 L241.310324,32.9617931 L241.310324,34.2324138 L237.82052,34.2324138 L237.82052,36.4733793 L240.805234,36.4733793 L240.805234,37.7015172 L237.82052,37.7015172 L237.82052,39.0136552 L241.454636,39.0136552 L241.454636,40.2852414 L236.351078,40.2852414 L236.351078,32.9617931" id="Fill-26" fill="#121212" sketch:type="MSShapeGroup"></path>
                <path d="M248.676062,40.2852414 L247.01843,40.2852414 L245.82396,38.4295172 C245.665022,38.444 245.505109,38.4575172 245.33252,38.4575172 L244.568059,38.4575172 L244.568059,40.2852414 L243.097642,40.2852414 L243.097642,32.9617931 L245.33252,32.9617931 C247.308028,32.9617931 248.577579,33.9466207 248.577579,35.7308966 C248.577579,36.8306207 248.057863,37.6155862 247.191994,38.0153103 L248.676062,40.2852414 L248.676062,40.2852414 Z M245.288642,37.2168276 C246.558193,37.2168276 247.076935,36.6732414 247.076935,35.7308966 C247.076935,34.7750345 246.558193,34.2324138 245.288642,34.2324138 L244.568059,34.2324138 L244.568059,37.2168276 L245.288642,37.2168276 L245.288642,37.2168276 Z" id="Fill-27" fill="#121212" sketch:type="MSShapeGroup"></path>
                <path d="M252.182442,37.9438621 L249.415171,32.9617931 L251.102056,32.9617931 L252.370632,35.3176552 C252.71581,35.9442759 252.945928,36.8161379 252.945928,36.8161379 C252.945928,36.8161379 253.191648,35.9162759 253.509523,35.3176552 L254.763474,32.9617931 L256.347975,32.9617931 L253.666511,37.9148966 L253.666511,40.2852414 L252.182442,40.2852414 L252.182442,37.9438621" id="Fill-28" fill="#121212" sketch:type="MSShapeGroup"></path>
                <path d="M70.8082056,15.0910345 C70.8082056,16.0893793 70.6356168,16.9892414 70.3655202,17.6467586 C69.5542555,19.544 67.7854642,20.5172414 65.7943551,20.5172414 C63.4356417,20.5172414 61.2241651,18.984 60.7814798,16.576 L63.5087726,16.576 C64.0743178,18.0358621 65.204433,18.1082759 65.8187321,18.1082759 C66.7284798,18.1082759 67.6128754,17.6467586 67.9570779,16.576 C68.0555607,16.2110345 68.1540436,15.7234483 68.1540436,15.2368276 L68.1540436,2.17048276 L70.8082056,2.17048276 L70.8082056,15.0910345" id="Fill-29" fill="#121212" sketch:type="MSShapeGroup"></path>
                <path d="M73.7977944,7.57351724 L80.6428411,7.57351724 L80.6428411,9.75365517 L76.1535826,9.75365517 L76.1535826,12.8365517 L80.453676,12.8365517 L80.453676,15.0166897 L76.1535826,15.0166897 L76.1535826,17.9972414 L80.6428411,17.9972414 L80.6428411,20.1773793 L73.7977944,20.1773793 L73.7977944,7.57351724" id="Fill-30" fill="#121212" sketch:type="MSShapeGroup"></path>
                <path d="M82.8962461,7.57351724 L85.5796604,7.57351724 L90.8421558,16.7362759 L90.8772586,16.7362759 L90.8772586,7.57351724 L93.2340218,7.57351724 L93.2340218,20.1773793 L90.6013115,20.1773793 L85.2871371,11.0136552 L85.2520343,11.0136552 L85.2520343,20.1773793 L82.8962461,20.1773793 L82.8962461,7.57351724" id="Fill-31" fill="#121212" sketch:type="MSShapeGroup"></path>
                <path d="M95.9505888,7.57351724 L98.307352,7.57351724 L98.307352,13.0238621 L98.3414798,13.0238621 L102.314922,7.57351724 L105.084143,7.57351724 L100.285785,13.7731034 L105.084143,20.1773793 L102.314922,20.1773793 L98.3414798,14.642069 L98.307352,14.642069 L98.307352,20.1773793 L95.9505888,20.1773793 L95.9505888,7.57351724" id="Fill-32" fill="#121212" sketch:type="MSShapeGroup"></path>
                <path d="M106.322492,7.57351724 L108.679255,7.57351724 L108.679255,20.1773793 L106.322492,20.1773793 L106.322492,7.57351724 Z" id="Fill-33" fill="#121212" sketch:type="MSShapeGroup"></path>
                <path d="M111.104274,7.57351724 L113.787688,7.57351724 L119.051159,16.7362759 L119.085287,16.7362759 L119.085287,7.57351724 L121.44205,7.57351724 L121.44205,20.1773793 L118.810315,20.1773793 L113.495165,11.0136552 L113.461037,11.0136552 L113.461037,20.1773793 L111.104274,20.1773793 L111.104274,7.57351724" id="Fill-34" fill="#121212" sketch:type="MSShapeGroup"></path>
                <path d="M125.312134,16.5663448 C125.432069,17.8263448 126.274536,18.2521379 126.997069,18.2521379 C127.926318,18.2521379 128.752209,17.6216552 128.752209,16.6677241 C128.752209,15.373931 127.908766,15.1354483 126.32719,14.5397241 C125.346262,14.1651034 123.299573,13.5684138 123.299573,10.9113103 C123.299573,8.90206897 124.88115,7.31765517 127.031196,7.31765517 C128.511364,7.31765517 130.677988,8.34013793 130.798897,10.9113103 L128.390455,10.9113103 C128.287097,9.78744828 127.599667,9.4977931 126.962941,9.4977931 C126.222857,9.4977931 125.656336,10.025931 125.656336,10.7751724 C125.656336,11.8652414 126.481252,12.1037241 127.77128,12.5295172 C128.820464,12.8703448 131.108972,13.6707586 131.108972,16.4128276 C131.108972,19.1375172 128.975502,20.4322759 126.980492,20.4322759 C125.346262,20.4322759 122.971947,19.3422069 122.834461,16.5663448 L125.312134,16.5663448" id="Fill-35" fill="#121212" sketch:type="MSShapeGroup"></path>
                <path d="M151.329162,15.0427586 L154.990579,18.7416552 L153.221788,20.5172414 L150.05181,17.3542069 C149.461888,18.2308966 147.86471,20.5172414 144.767863,20.5172414 C141.646639,20.5172414 139.213819,18.1575172 139.213819,15.1402759 C139.213819,13.0470345 140.319558,11.0513103 142.703623,10.0056552 C141.769498,9.05655172 140.959209,8.10744828 140.959209,6.42841379 C140.959209,3.752 143.023449,1.82965517 145.553776,1.82965517 C147.963193,1.82965517 150.076187,3.70372414 150.076187,6.40427586 C150.076187,7.91241379 149.412159,9.59144828 147.029069,10.7355862 L149.437511,13.0711724 L151.42667,9.1057931 L154.30315,9.1057931 L151.329162,15.0427586 L151.329162,15.0427586 Z M144.448037,11.7822069 C143.440782,12.122069 141.867981,12.9746207 141.867981,15.1402759 C141.867981,16.6484138 142.900589,18.1082759 144.767863,18.1082759 C146.954963,18.1082759 147.963193,16.1135172 148.282044,15.5293793 L144.448037,11.7822069 L144.448037,11.7822069 Z M147.422025,6.33089655 C147.422025,4.84689655 146.316287,4.23862069 145.530374,4.23862069 C144.596249,4.23862069 143.613371,4.96855172 143.613371,6.42841379 C143.613371,7.15834483 143.906869,7.84 145.160819,8.98317241 C146.536654,8.25324138 147.422025,7.67006897 147.422025,6.33089655 L147.422025,6.33089655 Z" id="Fill-36" fill="#121212" sketch:type="MSShapeGroup"></path>
                <path d="M180.471315,20.1773793 L180.471315,4.96855172 L180.398184,4.96855172 L174.27957,20.1773793 L172.681417,20.1773793 L166.537452,4.96855172 L166.488698,4.96855172 L166.488698,20.1773793 L163.835511,20.1773793 L163.835511,2.17048276 L168.012745,2.17048276 L173.46733,15.9667586 L178.947268,2.17048276 L183.125477,2.17048276 L183.125477,20.1773793 L180.471315,20.1773793" id="Fill-37" fill="#121212" sketch:type="MSShapeGroup"></path>
                <path d="M192.165424,7.31765517 C195.778087,7.31765517 198.82228,10.1794483 198.82228,13.9092414 C198.82228,17.5202759 195.829766,20.4322759 192.165424,20.4322759 C188.502056,20.4322759 185.509542,17.5202759 185.509542,13.9092414 C185.509542,10.1794483 188.553735,7.31765517 192.165424,7.31765517 L192.165424,7.31765517 Z M192.165424,18.2521379 C194.591417,18.2521379 196.465517,16.2255172 196.465517,13.8918621 C196.465517,11.4732414 194.55729,9.4977931 192.165424,9.4977931 C189.774533,9.4977931 187.866305,11.4732414 187.866305,13.8918621 C187.866305,16.2255172 189.740405,18.2521379 192.165424,18.2521379 L192.165424,18.2521379 Z" id="Fill-38" fill="#121212" sketch:type="MSShapeGroup"></path>
                <path d="M200.490639,7.57351724 L204.395826,7.57351724 C205.857467,7.57351724 206.769165,7.8457931 207.490723,8.42510345 C208.214231,9.00441379 208.987467,10.025931 208.987467,11.4732414 C208.987467,12.3084138 208.677393,13.6195862 207.76667,14.4885517 C207.010009,15.2030345 206.287477,15.373931 205.651726,15.5274483 L209.107402,20.1773793 L206.253349,20.1773793 L202.88153,15.3565517 L202.846427,15.3565517 L202.846427,20.1773793 L200.490639,20.1773793 L200.490639,7.57351724 L200.490639,7.57351724 Z M202.846427,13.6022069 L204.360723,13.6022069 C206.304053,13.6022069 206.630704,12.3257931 206.630704,11.6615172 C206.630704,10.9624828 206.200695,9.75365517 204.360723,9.75365517 L202.846427,9.75365517 L202.846427,13.6022069 L202.846427,13.6022069 Z" id="Fill-39" fill="#121212" sketch:type="MSShapeGroup"></path>
                <path d="M210.46666,7.57351724 L214.370872,7.57351724 C215.833489,7.57351724 216.744212,7.8457931 217.46772,8.42510345 C218.189277,9.00441379 218.964464,10.025931 218.964464,11.4732414 C218.964464,12.3084138 218.654389,13.6195862 217.742692,14.4885517 C216.985056,15.2030345 216.263498,15.373931 215.626773,15.5274483 L219.084399,20.1773793 L216.228396,20.1773793 L212.856576,15.3565517 L212.823424,15.3565517 L212.823424,20.1773793 L210.46666,20.1773793 L210.46666,7.57351724 L210.46666,7.57351724 Z M212.823424,13.6022069 L214.336745,13.6022069 C216.280075,13.6022069 216.607701,12.3257931 216.607701,11.6615172 C216.607701,10.9624828 216.177692,9.75365517 214.336745,9.75365517 L212.823424,9.75365517 L212.823424,13.6022069 L212.823424,13.6022069 Z" id="Fill-40" fill="#121212" sketch:type="MSShapeGroup"></path>
                <path d="M226.566171,7.31765517 C230.17786,7.31765517 233.223028,10.1794483 233.223028,13.9092414 C233.223028,17.5202759 230.229539,20.4322759 226.566171,20.4322759 C222.902804,20.4322759 219.91029,17.5202759 219.91029,13.9092414 C219.91029,10.1794483 222.954483,7.31765517 226.566171,7.31765517 L226.566171,7.31765517 Z M226.566171,18.2521379 C228.99119,18.2521379 230.866265,16.2255172 230.866265,13.8918621 C230.866265,11.4732414 228.956087,9.4977931 226.566171,9.4977931 C224.17528,9.4977931 222.265103,11.4732414 222.265103,13.8918621 C222.265103,16.2255172 224.141153,18.2521379 226.566171,18.2521379 L226.566171,18.2521379 Z" id="Fill-41" fill="#121212" sketch:type="MSShapeGroup"></path>
                <path d="M233.910458,7.57351724 L236.317925,7.57351724 L238.519651,16.3790345 L238.554754,16.3790345 L240.739903,7.57351724 L242.458966,7.57351724 L244.591461,16.3790345 L244.625589,16.3790345 L246.845841,7.57351724 L249.253308,7.57351724 L245.554838,20.1773793 L243.679763,20.1773793 L241.616498,11.8478621 L241.582371,11.8478621 L239.484003,20.1773793 L237.62648,20.1773793 L233.910458,7.57351724" id="Fill-42" fill="#121212" sketch:type="MSShapeGroup"></path>
                <path d="M59.8093271,22.7862069 L248.876928,22.7862069 L248.876928,24.8137931 L59.8093271,24.8137931 L59.8093271,22.7862069 Z" id="Fill-43" fill="#121212" sketch:type="MSShapeGroup"></path>
            </g>
        </g>
    </g>
</svg>